<?xml version="1.0" encoding="UTF-8" standalone="no"?>
<svg
   xmlns:dc="http://purl.org/dc/elements/1.1/"
   xmlns:cc="http://creativecommons.org/ns#"
   xmlns:rdf="http://www.w3.org/1999/02/22-rdf-syntax-ns#"
   xmlns:svg="http://www.w3.org/2000/svg"
   xmlns="http://www.w3.org/2000/svg"
   xmlns:sodipodi="http://sodipodi.sourceforge.net/DTD/sodipodi-0.dtd"
   xmlns:inkscape="http://www.inkscape.org/namespaces/inkscape"
   version="1.0"
   width="550pt"
   height="800pt"
   viewBox="0 0 550 800"
   preserveAspectRatio="xMidYMid meet"
   id="svg12"
   sodipodi:docname="sax-icon.svg"
   inkscape:version="0.92.5 (2060ec1f9f, 2020-04-08)">
  <metadata
     id="metadata18">
    <rdf:RDF>
      <cc:Work
         rdf:about="">
        <dc:format>image/svg+xml</dc:format>
        <dc:type
           rdf:resource="http://purl.org/dc/dcmitype/StillImage" />
        <dc:title></dc:title>
      </cc:Work>
    </rdf:RDF>
  </metadata>
  <defs
     id="defs16" />
  <sodipodi:namedview
     pagecolor="#ffffff"
     bordercolor="#666666"
     borderopacity="1"
     objecttolerance="10"
     gridtolerance="10"
     guidetolerance="10"
     inkscape:pageopacity="0"
     inkscape:pageshadow="2"
     inkscape:window-width="1178"
     inkscape:window-height="809"
     id="namedview14"
     showgrid="false"
     inkscape:zoom="0.17285156"
     inkscape:cx="682.66667"
     inkscape:cy="219.84181"
     inkscape:window-x="0"
     inkscape:window-y="0"
     inkscape:window-maximized="0"
     inkscape:current-layer="svg12" />
  <g
     transform="matrix(0.1,0,0,-0.1,-251.66102,917.15299)"
     id="g10"
     style="fill:#003932;stroke:none">
    <path
       d="m 5723,8640 c -107,-15 -196,-41 -275,-80 -96,-48 -129,-71 -301,-208 -77,-61 -170,-127 -207,-147 -77,-40 -201,-75 -266,-75 -42,0 -43,-1 -58,-47 -18,-57 -56,-207 -56,-222 0,-17 202,-14 306,4 126,22 252,67 374,133 185,100 234,121 300,131 163,26 297,-61 331,-216 24,-105 18,-119 -236,-573 -196,-349 -178,-310 -165,-355 39,-132 155,-314 266,-414 55,-50 227,-171 243,-171 7,0 334,655 501,1005 116,243 132,294 138,442 6,155 -12,243 -78,378 -93,193 -265,338 -471,395 -84,23 -254,33 -346,20 z m 312,-130 c 228,-71 393,-240 450,-460 31,-119 4,-340 -54,-445 -12,-22 -19,-31 -15,-20 56,162 42,370 -34,521 -63,125 -144,209 -271,284 -113,65 -156,75 -331,75 -144,0 -161,-2 -243,-29 -77,-25 -150,-63 -272,-141 -42,-26 -31,-15 45,45 125,100 249,161 375,186 99,19 261,12 350,-16 z m 14,-1256 c 55,-46 51,-132 -9,-174 -86,-61 -206,41 -159,133 25,49 51,67 95,67 31,0 51,-7 73,-26 z"
       id="path2"
       inkscape:connector-curvature="0" />
    <path
       d="m 3644,8324 c 28,-73 215,-285 323,-366 l 52,-39 20,20 c 12,12 30,21 40,21 32,0 64,-33 65,-69 l 1,-33 65,6 c 36,3 95,6 133,6 51,0 67,3 67,14 0,8 18,74 40,147 22,73 39,133 37,134 -23,15 -158,119 -163,126 -3,5 -23,6 -45,3 -33,-6 -46,-2 -72,17 -31,23 -37,23 -301,27 -258,4 -269,4 -262,-14 z"
       id="path4"
       inkscape:connector-curvature="0" />
    <path
       d="m 5272,6738 c -33,-57 -91,-157 -127,-223 -37,-66 -121,-216 -186,-332 l -120,-213 27,-52 c 14,-29 49,-90 76,-134 l 51,-81 38,15 c 112,44 249,-57 249,-183 0,-107 -81,-185 -192,-185 -105,0 -188,68 -188,155 0,34 -6,50 -31,76 -17,18 -56,75 -86,127 l -55,94 -87,-148 c -81,-139 -549,-959 -711,-1246 l -71,-128 41,-82 c 40,-79 70,-134 112,-205 l 19,-32 37,16 c 58,24 152,14 204,-23 61,-42 108,-116 108,-168 0,-35 11,-57 72,-144 39,-56 75,-99 79,-95 4,4 56,103 117,218 60,116 176,336 257,490 239,455 413,791 578,1113 l 155,304 -74,110 c -41,61 -74,116 -74,124 0,10 -14,12 -63,7 -52,-4 -70,-2 -105,16 -84,43 -116,152 -69,236 41,72 146,107 215,71 62,-33 112,-112 112,-179 0,-20 7,-40 17,-48 9,-8 41,-47 70,-87 l 54,-73 94,188 c 52,103 91,189 86,191 -40,14 -205,136 -279,206 -117,112 -180,196 -234,313 -24,51 -46,93 -49,93 -3,0 -33,-46 -67,-102 z M 4848,5154 c 75,-31 132,-110 132,-182 0,-62 -46,-141 -99,-169 -91,-48 -215,-21 -267,56 -107,162 58,369 234,295 z m -282,-572 c 116,-60 156,-188 96,-303 -37,-72 -93,-111 -166,-117 -83,-7 -119,4 -171,50 -87,77 -109,177 -59,276 55,110 188,152 300,94 z"
       id="path6"
       inkscape:connector-curvature="0" />
    <path
       d="m 5994,5802 c -55,-26 -97,-81 -120,-155 -27,-89 -25,-285 5,-425 l 22,-102 -79,-93 c -202,-235 -448,-579 -586,-819 -88,-154 -249,-471 -311,-613 -81,-186 -235,-561 -235,-572 0,-6 19,-16 43,-23 115,-34 230,-113 308,-213 l 39,-49 v 191 c 0,384 68,674 240,1026 133,273 334,547 536,732 46,43 88,79 93,81 4,1 16,-16 27,-39 10,-23 54,-101 96,-173 43,-72 78,-133 78,-137 0,-3 -30,-20 -67,-36 -160,-71 -371,-262 -492,-444 -126,-187 -214,-398 -265,-629 -25,-114 -37,-232 -56,-550 -6,-91 -16,-188 -24,-217 -34,-129 -102,-226 -193,-275 l -48,-27 3,67 c 7,121 -32,232 -118,340 -56,69 -129,118 -270,177 -97,41 -124,57 -170,104 -104,105 -118,248 -39,402 l 18,36 -56,89 c -30,49 -62,100 -70,112 -13,22 -16,22 -32,8 -51,-46 -171,-57 -239,-22 -99,51 -157,180 -122,271 9,23 6,32 -24,68 -18,23 -55,79 -81,125 -26,45 -51,82 -54,82 -8,0 -31,-41 -194,-332 -202,-360 -262,-496 -303,-688 -25,-119 -25,-354 0,-470 69,-319 270,-613 536,-785 519,-337 1188,-268 1602,164 159,165 234,293 378,641 159,385 296,605 496,802 145,141 242,209 435,303 98,48 132,54 164,29 35,-26 144,-54 214,-54 171,0 264,120 247,321 -38,454 -487,1270 -896,1626 -117,102 -228,157 -324,161 -53,2 -81,-2 -112,-16 z m 65,-512 c 105,-313 382,-742 620,-959 50,-46 91,-80 91,-77 0,4 -82,145 -183,314 -212,355 -288,494 -352,646 -25,60 -43,107 -40,104 3,-3 24,-30 48,-60 23,-31 117,-143 209,-249 302,-350 579,-718 647,-859 64,-134 46,-216 -50,-227 -100,-11 -245,64 -388,202 -184,177 -354,408 -483,660 -108,211 -188,500 -188,680 0,78 14,85 22,11 5,-39 26,-122 47,-186 z M 3908,3284 c 44,-18 97,-67 119,-109 24,-45 20,-123 -9,-181 -33,-67 -90,-106 -162,-112 -89,-7 -123,4 -176,57 -79,79 -88,176 -25,272 48,74 168,109 253,73 z m -336,-542 c 58,-121 169,-199 301,-209 l 74,-6 7,41 c 11,71 82,132 152,132 40,0 109,-45 135,-87 18,-29 24,-52 23,-96 -2,-107 -81,-182 -206,-194 -36,-3 -88,0 -117,6 -30,6 -55,10 -57,8 -7,-7 146,-88 203,-108 73,-26 209,-34 282,-17 l 53,13 5,49 c 5,59 22,95 63,129 81,69 204,36 251,-68 31,-67 21,-136 -29,-204 -93,-125 -360,-163 -634,-90 -327,88 -637,412 -692,722 l -7,37 83,-1 h 83 z"
       id="path8"
       inkscape:connector-curvature="0" />
  </g>
</svg>
